<svg width="240" height="240" viewBox="0 0 240 240" fill="none" xmlns="http://www.w3.org/2000/svg">
<rect width="240" height="240" rx="120" fill="black"/>
<path d="M98.2929 104.727H69.1445L98.2849 119.941V104.727H98.2929ZM95.8873 115.953L79.0317 107.153H95.8873V115.953Z" fill="white"/>
<path d="M179.5 99.6212L184.407 64.3718L184.447 64.1049L178.642 45L141.442 68.2542L133.047 62.8188H106.937L98.5416 68.2542L61.3504 45.0081L55.5447 64.113L60.4924 99.6212L45 125.213L54.5344 153.506L77.1715 178.548H98.6058V186.928L112.23 195H127.77L141.394 186.928V178.548H162.829L185.466 153.506L195 125.213L179.508 99.6293L179.5 99.6212ZM139.702 169.182L121.203 161.934V150.724L125.357 146.534H136.046V131.045L154.288 145.863L139.702 169.19V169.182ZM100.298 169.182L85.7115 145.855L103.954 131.037V146.526H114.643L118.797 150.716V161.926L100.298 169.174V169.182ZM68.9522 90.3114L98.1808 71.3764L103.946 80.6943V127.923L83.9795 144.14L48.0151 124.889L68.9602 90.3114H68.9522ZM115.638 144.108H106.36V84.5767L120 106.602L133.64 84.5767V144.099H124.362L120 148.5L115.638 144.099V144.108ZM156.013 144.14L136.038 127.923V80.6943L141.811 71.3764L171.04 90.3114L191.985 124.889L156.021 144.14H156.013ZM181.993 64.3071L177.527 96.3616L172.804 88.5724L172.395 88.3055L160.439 59.2437L177.254 48.7288L181.985 64.3071H181.993ZM158.37 60.5379L168.843 86.0084L143.688 69.7183L158.362 60.546L158.37 60.5379ZM107.651 65.2454H132.349L139.79 70.0661L120 102.023L100.21 70.0661L107.651 65.2454ZM71.1494 86.0003L81.63 60.5298L96.3044 69.7021L71.1494 85.9922V86.0003ZM58.0065 64.299L62.7376 48.7207L79.5531 59.2356L67.597 88.2974L67.1881 88.5643L62.473 96.3535L58.0065 64.299ZM48.4321 127.866L80.796 145.191L56.3707 151.428L48.4321 127.866ZM57.8301 153.555L83.5625 146.987L98.5978 171.034V176.13H78.222L57.8221 153.563L57.8301 153.555ZM138.981 185.545L127.105 192.582H112.871L100.995 185.545V171.511L119.984 164.07L138.973 171.511V185.545H138.981ZM161.762 176.122H141.386V171.034L156.421 146.987L182.154 153.555L161.754 176.122H161.762ZM183.621 151.428L159.196 145.191L191.56 127.866L183.621 151.428Z" fill="white"/>
<path d="M141.707 119.929L170.847 104.715H141.707V119.929ZM144.113 107.141H160.968L144.113 115.942V107.141Z" fill="white"/>
</svg>
