<svg width="240" height="240" viewBox="0 0 240 240" fill="none" xmlns="http://www.w3.org/2000/svg">
<rect width="240" height="240" rx="120" fill="black"/>
<path d="M205.545 85.0707L182.962 64.8192L157.379 62L128.684 77.5507H111.31L82.6084 62L57.0247 64.8192L34.4417 85.0707L34 85.2582V132.066L61.6491 154.697L61.9609 154.955L80.7184 153.132L88.0057 134.71L79.322 111.717L61.3698 98.701L54.5696 97.3561L61.4413 90.9289L76.042 87.4114L87.8434 94.0326L83.9983 111.542L94.189 138.351L101.47 169.09L112.394 178H127.606L138.53 169.09L145.811 138.351L156.002 111.542L152.157 94.0326L163.958 87.4114L178.559 90.9289L185.43 97.3561L178.63 98.701L160.678 111.717L151.994 134.71L159.282 153.132L178.039 154.955L206 132.072V85.2582L205.552 85.0707H205.545ZM157.775 63.998L182.124 66.6814L200.083 82.7882L181.553 75.0225L163.321 85.5427L143.785 96.4961L132.334 92.4161L130.002 79.0508L157.775 63.998ZM114.538 100.647L119.993 96.3021L125.449 100.647L126.664 99.1342L120.968 94.5951V79.497H128.112L130.613 93.858L141.667 97.7958L128.067 106.331L124.189 124.727H115.804L111.927 106.331L98.3263 97.7958L109.381 93.858L111.881 79.497H119.026V94.5951L113.323 99.1342L114.538 100.647ZM57.869 66.6749L82.2187 63.9915L109.985 79.0379L107.653 92.4031L96.2024 96.4832L76.6655 85.5298L58.4341 75.0096L39.9039 82.7753L57.869 66.6749ZM77.7047 112.939L85.9144 134.691L79.3414 151.315L64.403 152.763L71.6839 143.291L72.132 127.19L62.1687 108.891L48.88 98.2031L60.571 100.518L77.7047 112.946V112.939ZM69.9692 134.762L53.6018 124.701L52.147 103.324L60.6359 110.152L70.164 127.649L69.9627 134.755L69.9692 134.762ZM60.48 89.1637L52.2184 96.8905L41.5017 94.7697L50.0816 101.669L51.7248 125.832L69.9042 137.006L69.7484 142.612L62.1038 152.563L35.9485 131.147V86.5449L58.2977 77.1822L73.5934 86.0083L60.48 89.1637ZM106.01 154.684L119.993 149.866L133.977 154.684L136.465 167.57H123.618L120.968 164.932V159.171L129.535 157.496L129.158 155.595L119.993 157.386L110.823 155.595L110.446 157.496L119.013 159.171V164.932L116.363 167.57H103.516L106.003 154.684H106.01ZM126.904 176.054H113.089L105.068 169.51H117.175L119.993 166.704L122.812 169.51H134.919L126.898 176.054H126.904ZM153.969 111.394L143.96 137.717L137.751 163.904L130.574 126.744L131.808 122.748L142.213 121.073L150.319 112.545L137.465 108.859L132.633 113.482L128.567 126.628L133.555 152.472L119.993 147.804L106.432 152.472L111.42 126.628L107.354 113.482L102.522 108.859L89.6685 112.545L97.7742 121.073L108.179 122.748L109.413 126.744L102.236 163.898L96.0595 137.833L86.0183 111.387L89.61 95.0219L95.5984 98.3842L110.18 107.534L114.213 126.666H125.761L129.794 107.534L144.376 98.3842L150.371 95.0219L153.962 111.387L153.969 111.394ZM132.451 120.685L134.347 114.543L138.004 111.038L146.701 113.534L141.252 119.269L132.444 120.685H132.451ZM107.549 120.685L98.7419 119.269L93.2926 113.534L101.989 111.038L105.646 114.543L107.543 120.685H107.549ZM160.652 151.315L154.079 134.691L162.295 112.939L179.429 100.511L191.12 98.1967L177.831 108.885L167.868 127.184L168.316 143.284L175.597 152.757L160.659 151.308L160.652 151.315ZM169.823 127.656L179.351 110.159L187.84 103.331L186.385 124.707L170.018 134.768L169.816 127.662L169.823 127.656ZM204.045 131.147L177.89 152.556L170.245 142.605L170.089 136.999L188.269 125.826L189.912 101.662L198.492 94.7632L187.775 96.8841L179.513 89.1572L166.4 86.0018L181.696 77.1757L204.045 86.5385V131.141V131.147Z" fill="white"/>
</svg>
