<svg width="240" height="240" viewBox="0 0 240 240" fill="none" xmlns="http://www.w3.org/2000/svg">
<rect width="240" height="240" fill="black"/>
<path d="M60.5683 166.272L70.0956 137.953H105.184L114.721 166.272H127.411L93.8682 72H81.5626L48 166.272H60.5683ZM87.8468 86.2252L101.951 128.214H73.3589L87.5033 86.2252H87.8468ZM180.25 157.22H180.604V166.272H192V116.201C192 100.945 180.745 92.5094 165.267 92.5094C147.728 92.5094 139.1 101.764 138.332 114.474H149.526C150.213 107.22 155.538 102.451 164.853 102.451C174.663 102.451 180.189 107.704 180.189 117.242V124.627H161.054C144.414 124.698 135.574 132.71 135.574 145.419C135.574 158.746 145.243 167.444 159.266 167.444C169.975 167.444 176.603 163.1 180.26 157.23L180.25 157.22ZM162.438 157.574C154.841 157.574 147.728 153.563 147.728 145.005C147.728 138.438 152.012 133.74 161.953 133.74H180.189V142.166C180.189 151.219 172.592 157.574 162.438 157.574Z" fill="#E9EAEE"/>
</svg>
