<svg width="60" height="60" viewBox="0 0 60 60" fill="none" xmlns="http://www.w3.org/2000/svg">
<rect width="60" height="60" fill="#35363A"/>
<path d="M15.1421 41.5681L17.5239 34.4883H26.2959L28.6803 41.5681H31.8527L23.4671 18H20.3907L12 41.5681H15.1421ZM21.9617 21.5563L25.4877 32.0535H18.3397L21.8758 21.5563H21.9617ZM45.0625 39.305H45.1509V41.5681H48V29.0503C48 25.2364 45.1863 23.1273 41.3168 23.1273C36.932 23.1273 34.775 25.441 34.583 28.6184H37.3816C37.5534 26.8049 38.8844 25.6127 41.2132 25.6127C43.6658 25.6127 45.0474 26.9261 45.0474 29.3105V31.1568H40.2635C36.1036 31.1745 33.8935 33.1774 33.8935 36.3549C33.8935 39.6864 36.3107 41.8611 39.8165 41.8611C42.4938 41.8611 44.1507 40.775 45.065 39.3075L45.0625 39.305ZM40.6096 39.3934C38.7102 39.3934 36.932 38.3907 36.932 36.2513C36.932 34.6096 38.0029 33.4351 40.4883 33.4351H45.0474V35.5416C45.0474 37.8047 43.148 39.3934 40.6096 39.3934Z" fill="#E9EAEE"/>
</svg>
