<svg width="240" height="240" viewBox="0 0 240 240" fill="none" xmlns="http://www.w3.org/2000/svg">
<circle cx="120" cy="120" r="120" fill="black"/>
<path d="M75.4204 154.681L82.5658 133.442H108.882L116.035 154.681H125.552L100.395 83.9766H91.1661L65.9941 154.681H75.4204ZM95.8792 94.6455L106.457 126.137H85.0133L95.6216 94.6455H95.8792ZM165.182 147.892H165.447V154.681H173.994V117.127C173.994 105.686 165.553 99.3586 153.944 99.3586C140.79 99.3586 134.319 106.299 133.743 115.832H142.139C142.654 110.391 146.647 106.815 153.634 106.815C160.991 106.815 165.136 110.755 165.136 117.908V123.447H150.785C138.305 123.5 131.675 129.509 131.675 139.041C131.675 149.036 138.926 155.56 149.444 155.56C157.476 155.56 162.446 152.302 165.189 147.899L165.182 147.892ZM151.823 148.157C146.125 148.157 140.79 145.149 140.79 138.731C140.79 133.805 144.003 130.282 151.459 130.282H165.136V136.601C165.136 143.391 159.438 148.157 151.823 148.157Z" fill="white"/>
</svg>
