<svg width="240" height="240" viewBox="0 0 240 240" fill="none" xmlns="http://www.w3.org/2000/svg">
<rect width="240" height="240" rx="120" fill="black"/>
<path d="M95.047 111.953L79.7656 117.079L90.3717 127.778L99.9842 121.782L102.826 125.315L104.629 123.868L95.047 111.945V111.953ZM90.7106 124.846L84.0173 118.088L94.2537 114.655L98.5284 119.973L90.7106 124.846Z" fill="white"/>
<path d="M186.436 85.3396L191.743 63.0948L184.418 47H162.528L151.252 56.5214H88.7402L77.464 47H55.5741L48.2492 63.0948L53.5561 85.3473L40 139.89L61.8591 170.686L108.612 193H131.388L178.141 170.686L200 139.89L186.444 85.3396H186.436ZM121.151 176.466L136.048 168.762V157.662H103.937V168.762L118.833 176.466V181.724H94.4322V140.182L119.988 118.076L145.545 140.182V181.724H121.144V176.466H121.151ZM119.996 174.465L106.255 167.361V159.979H133.745V167.361L120.004 174.465H119.996ZM88.3397 59.1538L118.841 82.7149V114.281L93.3308 95.8155L65.5177 113.296L56.0978 85.7399L88.3397 59.1538ZM183.902 85.7399L174.482 113.296L146.669 95.8155L121.159 114.281V82.7149L151.66 59.1538L183.902 85.7399ZM147.347 138.673L121.852 116.629L146.754 98.6019L173.712 115.543L163.252 146.14L147.339 138.673H147.347ZM92.6453 138.673L76.7323 146.14L66.2803 115.543L93.2383 98.6019L118.14 116.629L92.6453 138.673ZM119.996 80.6905L91.6979 58.8306H148.294L119.996 80.6905ZM74.0596 145.462L42.6573 138.773L54.9194 89.4345L74.0596 145.462ZM92.1215 141.475V179.907L77.6489 148.264L92.1215 141.475ZM147.863 179.907V141.475L162.336 148.264L147.863 179.907ZM185.073 89.4422L197.335 138.773L165.925 145.462L185.073 89.4422ZM163.376 49.3092H182.932L189.309 63.3334L184.557 83.2922L153.486 57.6683L163.383 49.3092H163.376ZM57.0606 49.3092H76.6168L86.5142 57.6683L55.4431 83.2845L50.6908 63.3257L57.0606 49.3092ZM43.9051 141.398L75.0147 148.018L90.4424 181.762L63.3996 168.854L43.9051 141.398ZM130.864 190.691H109.136L95.1947 184.033H144.813L130.872 190.691H130.864ZM176.6 168.862L149.558 181.77L164.993 148.025L196.095 141.406L176.6 168.862Z" fill="white"/>
<path d="M144.943 111.949L135.361 123.872L137.164 125.319L140.006 121.786L149.618 127.782L160.224 117.083L144.943 111.957V111.949ZM149.279 124.842L141.462 119.97L145.736 114.651L155.973 118.084L149.279 124.842Z" fill="white"/>
</svg>
