<svg width="240" height="240" viewBox="0 0 240 240" fill="none" xmlns="http://www.w3.org/2000/svg">
<rect width="240" height="240" rx="120" fill="black"/>
<path d="M163.419 129.049L145.109 138.577L135.875 132.596L146.595 121.465L167.611 108.701L167.699 108.644L180.358 95.1974L185.363 82.7381L183.976 52.9341L167.725 35L169.039 45.381L178.153 56.4651V72.3158L162.632 50.6801V61.211L177 83.2293L174.451 89.8104L171.453 92.8813L171.328 92.7159L164.759 72.962L148.148 59.3188L150.109 70.6201L156.292 76.4154L143.169 72.8793L145.463 80.7167L154.843 84.1236L163.711 93.9825L161.573 102.642L149.238 110.738L150.875 103.614L145.312 96.0866L140.568 115.872L125.798 131.857H114.202L99.4323 115.872L94.688 96.0866L89.1251 103.614L90.7621 110.738L78.4267 102.642L76.2892 93.9825L85.1627 84.1236L94.542 80.7167L96.836 72.8793L83.7133 76.4154L89.8967 70.6201L91.857 59.3188L75.2464 72.962L68.6773 92.7159L68.5522 92.8813L65.5544 89.8104L62.9997 83.2344L77.3684 61.2162V50.6852L61.8475 72.3209V56.4703L70.9609 45.3862L72.2695 35L56.0187 52.9444L54.6371 82.5779V82.7433L59.6369 95.2026L72.2955 108.649L93.4002 121.465L104.119 132.596L94.8861 138.577L76.5759 129.049L53 133.113L66.7691 147.619L91.7162 150.69L92.5452 169.053L99.6878 180.696L106.22 198.366L114.859 205.371H125.141L133.78 198.366L140.312 180.696L147.455 169.053L148.284 150.69L173.231 147.619L187 133.113L163.419 129.055V129.049ZM183.674 80.0136L179.717 74.4923V58.3624L182.845 62.1674L183.674 80.0085V80.0136ZM170.535 44.7451L169.899 39.72L182.443 53.5648L182.725 59.5722L170.535 44.7451ZM164.196 60.7509V55.5345L178.153 74.9886V75.0248H178.179L183.695 82.7174L181.724 87.6184L164.196 60.7509ZM175.796 90.6583L178.053 84.8371L181.02 89.3813L179.023 94.3547L168.612 105.413L170.817 95.7609L175.801 90.6531L175.796 90.6583ZM151.563 69.8446L150.406 63.1859L163.414 73.8719L168.408 88.8902L159.561 77.2943L159.493 77.2736L151.568 69.8446H151.563ZM155.744 82.795L146.741 79.5225L145.448 75.092L158.633 78.6436L169.779 93.2535L168.841 97.348L155.744 82.7898V82.795ZM164.973 95.3835L168.419 99.2143L166.516 107.553L161.161 110.805L164.973 95.3835ZM161.021 104.86L159.269 111.958L147.278 119.237L148.732 112.925L161.026 104.86H161.021ZM146.052 99.7055L149.191 103.955L145.39 120.478L139.64 126.449L146.052 99.7106V99.7055ZM124.364 133.402L120 138.128L115.636 133.402H124.369H124.364ZM76.5863 73.8719L89.5943 63.1859L88.4369 69.8446L80.5122 77.2736L80.4444 77.2943L71.5969 88.8902L76.5915 73.8719H76.5863ZM81.3672 78.6488L94.5524 75.0971L93.2594 79.5225L84.2555 82.795L71.159 97.3532L70.2205 93.2587L81.3672 78.6488ZM57.5515 53.5648L70.0954 39.72L69.4593 44.7451L57.2699 59.5722L57.5515 53.5648ZM57.15 62.1726L60.2782 58.3624V74.4923L56.3159 80.0136L57.1448 62.1726H57.15ZM56.3002 82.7174L61.8162 75.0248H61.8423V74.9886L75.7991 55.5345V60.7509L58.271 87.6184L56.3002 82.7174ZM60.9768 94.3599L58.98 89.3865L61.9465 84.8422L64.204 90.6635L69.1882 95.7712L71.3936 105.423L60.982 94.3651L60.9768 94.3599ZM73.479 107.553L71.5709 99.2143L75.017 95.3835L78.8282 110.8L73.479 107.548V107.553ZM80.7259 111.953L78.9742 104.855L91.2678 112.92L92.7224 119.232L80.7311 111.953H80.7259ZM94.6045 120.478L90.8038 103.955L93.9424 99.7055L100.355 126.449L94.6045 120.478ZM102.493 128.667L100.167 118.963L113.504 133.392L119.453 139.828L119.99 140.371L120.527 139.828L139.817 118.953L137.492 128.656L119.995 146.823L102.498 128.656L102.493 128.667ZM105.214 133.733L119.468 148.529L119.995 149.062L120.521 148.529L134.775 133.733L143.831 139.596L140.63 142.77L132.794 142.32L119.995 155.679L107.195 142.32L99.3593 142.77L96.1582 139.596L105.214 133.733ZM67.5147 146.141L56.1229 134.136L76.1171 130.693L90.6683 148.989L67.5147 146.136V146.141ZM92.5347 148.834L79.3287 132.229L94.4534 140.097L97.9412 143.556L92.5347 148.829V148.834ZM104.99 184.232V190.56L101.116 180.086L94.078 168.583L93.2542 150.308L99.3854 144.326L106.554 143.913L119.129 157.039V179.657L107.117 183.55L113.108 168.666L109.823 158.078L105.944 154.382L95.6264 157.328L102.133 164.147L110.485 165.486L111.455 168.604L104.995 184.248L104.99 184.232ZM109.969 163.816L102.905 162.684L98.5304 158.099L105.511 156.103L108.447 158.905L109.969 163.816ZM124.567 203.81H115.402L109.057 198.666H117.258L119.984 195.962L122.711 198.666H130.912L124.567 203.81ZM133.42 194.784L132.56 197.115H123.363L121.236 195.006V190.389L127.435 189.061L127.106 187.546L119.995 189.071L112.883 187.546L112.555 189.061L118.754 190.389V195.006L116.627 197.115H107.43L106.57 194.784V185.354L120.005 181.001L133.441 185.354V194.784H133.42ZM145.896 168.578L138.884 180.008L134.984 190.555V184.227L128.524 168.583L129.494 165.466L137.846 164.127L144.353 157.308L134.035 154.361L130.156 158.057L126.872 168.645L132.862 183.529L120.85 179.636V157.018L133.425 143.892L140.594 144.306L146.725 150.287L145.901 168.562L145.896 168.578ZM130.005 163.816L131.527 158.905L134.463 156.103L141.444 158.099L137.069 162.684L130 163.816H130.005ZM147.444 148.834L142.038 143.561L145.526 140.102L160.65 132.234L147.444 148.839V148.834ZM172.464 146.141L149.311 148.995L163.862 130.699L183.856 134.142L172.464 146.146V146.141Z" fill="white"/>
</svg>
