<svg width="240" height="240" viewBox="0 0 240 240" fill="none" xmlns="http://www.w3.org/2000/svg">
<rect width="240" height="240" rx="120" fill="black"/>
<path d="M180 50.2945L173.377 39L140.496 69.1818L134.954 81.96H105.046L99.5043 69.1818L66.63 39L60 50.2945L71.3305 105.022L61.8352 144.047L99.4173 170.273L102.536 186.52L111.56 201H128.433L137.456 186.52L140.568 170.273L178.15 144.047L168.655 105.022L179.906 50.7091L179.993 50.2945H180ZM177.613 50.5345L150.397 106.738L142.592 70.2145L172.862 42.4255L177.613 50.5273V50.5345ZM142.142 150.549L142.121 150.658L126.692 173.16L132.879 140.193L143.056 143.291L154.278 131.647H157.832V129.465H137.406L131.015 138.353L122.252 185.022H117.755L109.036 138.593L108.992 138.353L102.602 129.465H82.1749V131.647H85.7293L96.951 143.291L107.128 140.193L113.316 173.153L97.8867 150.651L97.865 150.542L74.1595 137.051L90.2339 111.749L120.018 139.516L149.802 111.749L165.87 137.051L142.164 150.542L142.142 150.549ZM124.269 186.033L125.422 179.873L134.947 186.418L128.113 197.378L124.262 186.033H124.269ZM133.808 138.193L138.515 131.647H151.253L142.418 140.811L133.808 138.193ZM115.724 186.033L111.872 197.378L105.039 186.418L114.563 179.873L115.717 186.033H115.724ZM106.185 138.193L97.5748 140.811L88.7396 131.647H101.477L106.185 138.193ZM98.953 73.3782L103.124 83L92.693 102.658L98.953 73.3782ZM147.3 102.658L136.869 83L141.04 73.3782L147.3 102.658ZM121.084 111.153H147.227L121.084 135.524V111.153ZM118.908 135.524L92.7655 111.153H118.908V135.524ZM135.012 84.1418L148.185 108.971H121.084V84.1418H135.012ZM118.908 108.971H91.808L104.981 84.1418H118.908V108.971ZM67.1378 42.4255L97.408 70.2145L89.6029 106.738L62.3865 50.5345L67.145 42.4327L67.1378 42.4255ZM63.9896 58.8545L87.9562 108.338L73.3761 104.164L63.9969 58.8545H63.9896ZM73.231 106.396L88.2972 110.709L71.8237 136.651L64.773 141.189L73.231 106.404V106.396ZM65.0269 143.611L72.6434 138.702L95.8992 151.938L98.8225 167.196L65.0342 143.618L65.0269 143.611ZM98.895 155.996L113.809 177.742L104.314 184.265L98.895 155.996ZM113.678 198.811L117.617 187.196H122.361L126.3 198.811H113.671H113.678ZM135.672 184.265L126.177 177.742L141.09 155.996L135.672 184.265ZM144.086 151.938L167.342 138.702L174.959 143.611L141.156 167.204L144.079 151.945L144.086 151.938ZM175.22 141.175L168.169 136.636L151.696 110.695L166.755 106.382L175.22 141.167V141.175ZM166.617 104.156L152.037 108.331L176.003 58.8473L166.617 104.164V104.156Z" fill="white"/>
</svg>
