<svg width="240" height="240" viewBox="0 0 240 240" fill="none" xmlns="http://www.w3.org/2000/svg">
<rect width="240" height="240" rx="120" fill="black"/>
<path d="M190.602 135.004L197.497 130.376L177.33 91.0562L193.38 51L164.88 80.9107L137.511 67.5047H102.489L75.1196 80.9107L46.6122 51L62.6622 91.0481L42.4947 130.376L49.3894 135.004L40 161.298L119.604 188.862L120 189L200 161.298L190.611 135.004H190.602ZM154.385 174.518L137.608 180.327L143.817 167.075L154.385 174.518ZM145.472 165.279L162.378 153.936L156.363 172.948L145.472 165.279ZM165.163 153.159L179.34 165.877L158.898 172.957L165.155 153.159H165.163ZM166.544 151.136L187.26 137.237L180.971 164.081L166.544 151.136ZM189.383 138.798L196.884 159.801L183.369 164.486L189.383 138.806V138.798ZM154.482 116.234L157.453 104.179L164.816 99.5593L161.627 116.234H154.482ZM151.987 116.234H144.22L149.024 109.454L154.498 106.024L151.987 116.234ZM168.505 118.661L155.499 133.717L131.101 134.729L142.88 118.119V118.661H168.497H168.505ZM170.144 116.234H164.089L167.609 97.7956L174.302 93.5966L170.136 116.234H170.144ZM186.445 61.7847L175.021 90.2876L147.329 107.658L128.017 134.891L121.203 137.399V117.067L136.567 96.9461L165.857 83.3944L186.445 61.7928V61.7847ZM119.992 86.9866L137.455 70.1745L162.321 82.3508L135.017 94.9882L120 114.656L104.983 94.9882L77.6708 82.3508L102.537 70.1745L119.992 86.9866ZM105.766 69.9237H134.217L119.992 83.621L105.766 69.9237ZM119.992 140.425L126.975 137.852L119.992 162.56L113.008 137.852L119.992 140.425ZM74.1346 83.3944L103.425 96.9461L118.789 117.067V137.399L111.975 134.891L92.8086 107.86L92.6713 107.666L64.9793 90.2957L53.5473 61.7928L74.1346 83.3944ZM88.0048 116.242L85.494 106.032L90.9678 109.462L95.7715 116.242H88.0048ZM82.5472 104.187L85.5101 116.242H78.3651L75.1761 99.5674L82.5391 104.187H82.5472ZM72.3746 97.8117L75.8946 116.25H69.8395L65.6736 93.6128L72.3665 97.8117H72.3746ZM97.1036 118.677V118.135L108.883 134.745L84.4848 133.734L71.4785 118.677H97.1036ZM63.4373 94.8425L67.7001 118.006L83.3384 136.112L110.312 137.229L119.992 171.484L129.672 137.229L156.645 136.112L172.284 118.006L176.547 94.8425L194.349 129.567L119.992 179.461L45.6353 129.559L63.4454 94.8344L63.4373 94.8425ZM74.8209 153.167L81.0859 172.965L60.6439 165.885L74.8209 153.167ZM59.013 164.089L52.7238 137.253L73.4403 151.153L59.013 164.097V164.089ZM77.6143 153.944L94.5201 165.287L83.629 172.957L77.6143 153.944ZM96.1752 167.083L102.384 180.335L85.607 174.526L96.1752 167.083ZM50.6085 138.798L56.6233 164.486L43.1083 159.801L50.6085 138.798ZM105.581 181.435L99.6064 168.693L120 182.374L140.394 168.693L134.419 181.435L120 186.427L105.581 181.435Z" fill="white"/>
</svg>
