<svg width="600" height="600" viewBox="0 0 600 600" fill="none" xmlns="http://www.w3.org/2000/svg">
<circle cx="300" cy="300" r="300" fill="#1B73E7"/>
<path d="M198.646 274.544C140.236 281.948 89.8038 264.025 86.0018 234.513C82.1998 205 126.468 175.073 184.878 167.669C243.288 160.265 293.721 178.187 297.523 207.7C301.324 237.212 257.056 267.139 198.646 274.544Z" fill="white" fill-opacity="0.8"/>
<path d="M204.911 293.616C234.564 356.074 236.605 416.984 209.47 429.66C182.335 442.336 136.299 401.98 106.647 339.521C76.9939 277.062 74.9529 216.153 102.088 203.477C129.223 190.8 175.259 231.157 204.911 293.616Z" fill="white"/>
<path d="M493.147 279.578C524.313 345.751 526.458 410.283 497.938 423.713C469.418 437.143 421.033 394.386 389.867 328.213C358.701 262.04 356.556 197.508 385.076 184.078C413.595 170.648 461.98 213.404 493.147 279.578Z" fill="white" fill-opacity="0.8"/>
<path d="M411.97 327.732C386.04 396.126 341.124 442.513 311.647 431.339C282.17 420.165 279.294 355.662 305.224 287.267C331.154 218.873 376.07 172.486 405.548 183.66C435.025 194.834 437.9 259.337 411.97 327.732Z" fill="white"/>
</svg>
