<svg width="476" height="293" viewBox="0 0 476 293" fill="none" xmlns="http://www.w3.org/2000/svg">
<path d="M126.946 119.233C63.2215 127.311 8.20018 107.757 4.05229 75.5566C-0.0956116 43.3565 48.2006 10.7043 111.925 2.62584C175.649 -5.45265 230.67 14.1018 234.818 46.3018C238.966 78.5019 190.67 111.154 126.946 119.233Z" fill="#1B73E7" fill-opacity="0.8"/>
<path d="M133.781 140.041C166.132 208.188 168.358 274.644 138.754 288.474C109.151 302.305 58.9263 258.273 26.5755 190.127C-5.77522 121.98 -8.00195 55.5247 21.602 41.694C51.2059 27.8633 101.43 71.895 133.781 140.041Z" fill="#1B73E7"/>
<path d="M448.241 124.725C482.243 196.925 484.583 267.333 453.469 281.986C422.354 296.639 369.567 249.989 335.565 177.789C301.563 105.59 299.223 35.1821 330.338 20.5289C361.452 5.87564 414.24 52.526 448.241 124.725Z" fill="#1B73E7" fill-opacity="0.8"/>
<path d="M359.679 177.264C331.39 251.887 282.387 302.498 250.228 290.306C218.069 278.115 214.931 207.738 243.221 133.115C271.51 58.4923 320.513 7.88152 352.672 20.0729C384.831 32.2643 387.969 102.641 359.679 177.264Z" fill="#1B73E7"/>
</svg>
